#!OML:ASF E:\VariousWalksJay\Project 1\Capture day 1\Session 1\Actor2.ASF
:FULLY-SPECIFIED
:DEGREES
1389
root 2.52463 16.9719 16.4313 366.248 -35.7158 -367.192
lowerback -3.95528 -3.13062 4.12228
upperback 2.86951 -4.44343 -0.0934181
thorax 4.87303 -2.0629 -2.74954
lowerneck -7.00745 -4.95958 -7.81791
upperneck 2.8529 -7.32529 20.8528
head 3.14511 -3.19781 7.35376
rclavicle -4.33351e-014 3.18055e-015
rhumerus -36.3438 3.96784 -88.8984
rradius 37.1666
rwrist 6.4998
rhand -16.7002 -7.41025
rfingers 7.12502
rthumb 9.52462 -37.175
lclavicle -4.33351e-014 3.18055e-015
lhumerus -3.83977 -14.0839 81.8504
lradius 28.5271
lwrist 5.53535
lhand -14.3196 -6.85123
lfingers 7.12502
lthumb 11.8209 22.7951
rfemur -30.0967 1.56518 26.2391
rtibia 48.7349
rfoot -18.2938 -14.1718
rtoes -13.5976
lfemur -9.94186 10.4413 -19.9093
ltibia 34.2842
lfoot -24.8006 2.58013
ltoes -3.27404
1390
root 2.48545 16.9706 16.5192 366.154 -35.6796 -367.039
lowerback -3.92664 -3.12749 4.06918
upperback 2.89589 -4.434 -0.123323
thorax 4.88646 -2.05886 -2.74953
lowerneck -7.00475 -4.98754 -7.83466
upperneck 2.80287 -7.35817 20.8991
head 3.13806 -3.2157 7.36938
rclavicle -1.04362e-015 -1.59028e-014
rhumerus -36.2252 4.43021 -89.1226
rradius 37.6144
rwrist 6.29333
rhand -16.8949 -7.54043
rfingers 7.12502
rthumb 9.33678 -37.3137
lclavicle -1.04362e-015 -1.59028e-014
lhumerus -3.59357 -14.5346 81.7873
lradius 29.2273
lwrist 5.97349
lhand -14.371 -6.91241
lfingers 7.12502
lthumb 11.7713 22.7368
rfemur -30.5424 1.417 26.4057
rtibia 47.3934
rfoot -18.0256 -13.7854
rtoes -13.7226
lfemur -9.43784 10.4459 -20.0687
ltibia 33.9984
lfoot -24.8757 2.60777
ltoes -3.53077
1391
root 2.44576 16.9694 16.6076 366.049 -35.657 -366.869
lowerback -3.90171 -3.12088 4.01116
upperback 2.92425 -4.41952 -0.160872
thorax 4.9042 -2.05221 -2.75469
lowerneck -7.00635 -5.01322 -7.83963
upperneck 2.74847 -7.38741 20.9366
head 3.12912 -3.23186 7.38025
rclavicle -7.70291e-015 1.35174e-014
rhumerus -36.1046 4.89152 -89.3372
rradius 38.0251
rwrist 6.11541
rhand -17.072 -7.67341
rfingers 7.12502
rthumb 9.16591 -37.4542
lclavicle -7.70291e-015 1.35174e-014
lhumerus -3.38587 -14.9664 81.7309
lradius 29.9153
lwrist 6.38307
lhand -14.4316 -6.98089
lfingers 7.12502
lthumb 11.7129 22.6717
rfemur -30.9633 1.20236 26.5796
rtibia 46.0523
rfoot -17.6631 -13.3852
rtoes -13.8063
lfemur -8.91819 10.4877 -20.2344
ltibia 33.6938
lfoot -24.9236 2.58493
ltoes -3.7372
1392
root 2.40545 16.9682 16.6965 365.937 -35.6518 -366.68
lowerback -3.88212 -3.11015 3.94038
upperback 2.95115 -4.39867 -0.204316
thorax 4.92433 -2.04269 -2.75872
lowerneck -7.01225 -5.03484 -7.83607
upperneck 2.69284 -7.41106 20.9688
head 3.11916 -3.24515 7.38818
rclavicle 7.22582e-014 -3.97569e-015
rhumerus -35.98 5.34786 -89.5394
rradius 38.3912
rwrist 5.96572
rhand -17.2253 -7.80266
rfingers 7.12502
rthumb 9.01793 -37.5899
lclavicle 7.22582e-014 -3.97569e-015
lhumerus -3.21247 -15.3759 81.682
lradius 30.58
lwrist 6.75353
lhand -14.4945 -7.05682
lfingers 7.12502
lthumb 11.6523 22.5992
rfemur -31.3695 0.925225 26.7606
rtibia 44.7197
rfoot -17.2101 -12.9618
rtoes -13.7866
lfemur -8.38897 10.5701 -20.4112
ltibia 33.3712
lfoot -24.9511 2.53249
ltoes -3.96796
1393
root 2.36446 16.967 16.7858 365.817 -35.6563 -366.471
lowerback -3.86663 -3.0971 3.85582
upperback 2.97445 -4.37377 -0.251203
thorax 4.94399 -2.03166 -2.75851
lowerneck -7.01514 -5.05478 -7.83183
upperneck 2.63667 -7.43162 20.9926
head 3.10763 -3.25728 7.39353
rclavicle -9.75039e-014 3.18055e-015
rhumerus -35.8548 5.79376 -89.7219
rradius 38.7067
rwrist 5.84004
rhand -17.3541 -7.92137
rfingers 7.12502
rthumb 8.89364 -37.7139
lclavicle -9.75039e-014 3.18055e-015
lhumerus -3.07669 -15.7557 81.6506
lradius 31.2124
lwrist 7.08017
lhand -14.5458 -7.15027
lfingers 7.12502
lthumb 11.6027 22.5085
rfemur -31.7617 0.575389 26.9518
rtibia 43.4034
rfoot -16.6565 -12.5196
rtoes -13.707
lfemur -7.85026 10.6887 -20.599
ltibia 33.0317
lfoot -24.9622 2.45921
ltoes -4.25576
1394
root 2.32265 16.9657 16.8756 365.698 -35.6652 -366.252
lowerback -3.86094 -3.08114 3.76572
upperback 2.99349 -4.34484 -0.299975
thorax 4.96528 -2.0188 -2.75736
lowerneck -7.00822 -5.07421 -7.83004
upperneck 2.5716 -7.45004 21.0171
head 3.09161 -3.26934 7.3999
rclavicle 5.2827e-014 -2.46493e-014
rhumerus -35.7247 6.21895 -89.8862
rradius 38.9668
rwrist 5.73354
rhand -17.458 -8.02806
rfingers 7.12502
rthumb 8.79339 -37.8249
lclavicle 5.2827e-014 -2.46493e-014
lhumerus -2.9714 -16.1199 81.6348
lradius 31.8029
lwrist 7.36096
lhand -14.5818 -7.25679
lfingers 7.12502
lthumb 11.568 22.404
rfemur -32.1481 0.155526 27.1644
rtibia 42.1093
rfoot -16.0083 -12.0487
rtoes -13.5398
lfemur -7.31 10.8276 -20.7902
ltibia 32.6774
lfoot -24.958 2.37196
ltoes -4.58131
1395
root 2.27998 16.9644 16.9658 365.577 -35.6754 -366.018
lowerback -3.86742 -3.06788 3.66379
upperback 3.00753 -4.31904 -0.350316
thorax 4.98869 -2.00789 -2.75207
lowerneck -6.99473 -5.08846 -7.83119
upperneck 2.50771 -7.46128 21.0408
head 3.07378 -3.27822 7.4072
rclavicle 8.75149e-014 -1.51076e-014
rhumerus -35.5912 6.6333 -90.0375
rradius 39.1697
rwrist 5.63951
rhand -17.5426 -8.11217
rfingers 7.12502
rthumb 8.71179 -37.9124
lclavicle 8.75149e-014 -1.51076e-014
lhumerus -2.89992 -16.4372 81.6374
lradius 32.3436
lwrist 7.57032
lhand -14.5978 -7.37761
lfingers 7.12502
lthumb 11.5527 22.284
rfemur -32.5309 -0.339234 27.3957
rtibia 40.8427
rfoot -15.2596 -11.5513
rtoes -13.338
lfemur -6.76745 10.9837 -20.99
ltibia 32.3099
lfoot -24.9413 2.27654
ltoes -4.96991
1396
root 2.23637 16.9629 17.0566 365.462 -35.6792 -365.778
lowerback -3.88837 -3.05053 3.56383
upperback 3.01734 -4.28828 -0.401746
thorax 5.01602 -1.99437 -2.7494
lowerneck -6.9667 -5.10664 -7.84097
upperneck 2.43395 -7.47639 21.071
head 3.0518 -3.29022 7.41816
rclavicle -1.26924e-013 7.95139e-015
rhumerus -35.4528 7.00866 -90.168
rradius 39.3131
rwrist 5.55718
rhand -17.6144 -8.17498
rfingers 7.12502
rthumb 8.64246 -37.9781
lclavicle -1.26924e-013 7.95139e-015
lhumerus -2.84959 -16.7607 81.6612
lradius 32.8246
lwrist 7.74014
lhand -14.5832 -7.51074
lfingers 7.12502
lthumb 11.5668 22.1501
rfemur -32.9091 -0.901901 27.6529
rtibia 39.6066
rfoot -14.4287 -11.0198
rtoes -13.0613
lfemur -6.2253 11.1385 -21.1886
ltibia 31.9315
lfoot -24.9062 2.17041
ltoes -5.36758
1397
root 2.19165 16.9615 17.1481 365.356 -35.6714 -365.542
lowerback -3.92356 -3.03196 3.46952
upperback 3.02269 -4.25667 -0.451252
thorax 5.04657 -1.98024 -2.74853
lowerneck -6.93576 -5.12722 -7.85174
upperneck 2.3658 -7.49536 21.0977
head 3.03139 -3.30407 7.42797
rclavicle -7.25564e-015 -8.74653e-015
rhumerus -35.3202 7.36382 -90.2858
rradius 39.4096
rwrist 5.47435
rhand -17.6788 -8.21344
rfingers 7.12502
rthumb 8.58029 -38.0191
lclavicle -7.25564e-015 -8.74653e-015
lhumerus -2.82306 -17.0561 81.7131
lradius 33.2383
lwrist 7.82918
lhand -14.5413 -7.65732
lfingers 7.12502
lthumb 11.6072 22.0012
rfemur -33.2796 -1.51759 27.9387
rtibia 38.4023
rfoot -13.5309 -10.4644
rtoes -12.7249
lfemur -5.6847 11.2814 -21.3775
ltibia 31.5458
lfoot -24.8577 2.05678
ltoes -5.78862
1398
root 2.1457 16.9601 17.2402 365.261 -35.6464 -365.307
lowerback -3.97712 -3.01753 3.37666
upperback 3.02265 -4.23117 -0.499516
thorax 5.08149 -1.96905 -2.74855
lowerneck -6.89408 -5.14705 -7.86549
upperneck 2.2989 -7.51383 21.128
head 3.00969 -3.31816 7.43973
rclavicle -1.28713e-014 -1.59028e-015
rhumerus -35.1984 7.71198 -90.3989
rradius 39.4659
rwrist 5.39618
rhand -17.7496 -8.23773
rfingers 7.12502
rthumb 8.51194 -38.0462
lclavicle -1.28713e-014 -1.59028e-015
lhumerus -2.82015 -17.3432 81.7822
lradius 33.5831
lwrist 7.86567
lhand -14.475 -7.8068
lfingers 7.12502
lthumb 11.671 21.8481
rfemur -33.6459 -2.18199 28.2476
rtibia 37.2306
rfoot -12.5711 -9.89669
rtoes -12.4111
lfemur -5.14872 11.4089 -21.5588
ltibia 31.1557
lfoot -24.7984 1.93568
ltoes -6.2455
